<?xml version="1.0" standalone="no"?>
<!DOCTYPE svg PUBLIC "-//W3C//DTD SVG 20010904//EN"
 "http://www.w3.org/TR/2001/REC-SVG-20010904/DTD/svg10.dtd">
<svg version="1.0" xmlns="http://www.w3.org/2000/svg"
 width="192.000000pt" height="192.000000pt" viewBox="0 0 192.000000 192.000000"
 preserveAspectRatio="xMidYMid meet">
<metadata>
Created by potrace 1.11, written by Peter Selinger 2001-2013
</metadata>
<g transform="translate(0.000000,192.000000) scale(0.100000,-0.100000)"
fill="#000000" stroke="none">
<path d="M770 1861 c-391 -83 -685 -414 -725 -818 l-7 -73 90 0 c63 0 92 4 95
13 4 9 8 9 16 -3 7 -10 40 -15 135 -18 l124 -4 7 48 c27 204 145 347 329 399
45 13 84 16 157 13 78 -4 99 -2 103 9 3 8 11 11 17 8 6 -4 8 -13 5 -21 -3 -9
16 -24 55 -45 72 -39 158 -128 192 -201 33 -70 51 -166 44 -233 -6 -62 -22
-53 143 -80 52 -9 141 -25 197 -36 57 -11 107 -18 112 -15 5 4 12 45 16 92 17
201 -51 442 -170 604 -50 68 -171 182 -244 231 -200 131 -456 179 -691 130z
m198 -25 c3 -12 -1 -17 -10 -14 -7 3 -15 13 -16 22 -3 12 1 17 10 14 7 -3 15
-13 16 -22z m-28 -46 c0 -5 -4 -10 -10 -10 -5 0 -10 5 -10 10 0 6 5 10 10 10
6 0 10 -4 10 -10z m-325 -60 c3 -5 -1 -10 -9 -10 -9 0 -16 5 -16 10 0 6 4 10
9 10 6 0 13 -4 16 -10z m261 -77 c-10 -10 -19 5 -10 18 6 11 8 11 12 0 2 -7 1
-15 -2 -18z m424 7 c0 -5 -4 -10 -10 -10 -5 0 -10 5 -10 10 0 6 5 10 10 10 6
0 10 -4 10 -10z m-670 -30 c0 -5 -4 -10 -9 -10 -6 0 -13 5 -16 10 -3 6 1 10 9
10 9 0 16 -4 16 -10z m490 -71 c0 -5 -4 -9 -10 -9 -5 0 -10 7 -10 16 0 8 5 12
10 9 6 -3 10 -10 10 -16z m-580 1 c0 -5 -4 -10 -10 -10 -5 0 -10 5 -10 10 0 6
5 10 10 10 6 0 10 -4 10 -10z m930 1 c0 -14 -18 -23 -30 -16 -6 4 -8 11 -5 16
8 12 35 12 35 0z m-1148 -63 c-15 -15 -26 -4 -18 18 5 13 9 15 18 6 9 -9 9
-15 0 -24z m708 13 c0 -6 -4 -13 -10 -16 -5 -3 -10 1 -10 9 0 9 5 16 10 16 6
0 10 -4 10 -9z m-190 -21 c0 -5 -7 -10 -15 -10 -8 0 -15 5 -15 10 0 6 7 10 15
10 8 0 15 -4 15 -10z m470 0 c0 -5 -2 -10 -4 -10 -3 0 -8 5 -11 10 -3 6 -1 10
4 10 6 0 11 -4 11 -10z m-1030 -21 c0 -5 -7 -9 -15 -9 -15 0 -20 12 -9 23 8 8
24 -1 24 -14z m950 -54 c7 -9 10 -18 7 -22 -8 -7 -37 15 -37 28 0 14 16 11 30
-6z m400 -5 c0 -5 -2 -10 -4 -10 -3 0 -8 5 -11 10 -3 6 -1 10 4 10 6 0 11 -4
11 -10z m-330 -26 c0 -8 -4 -12 -10 -9 -5 3 -10 10 -10 16 0 5 5 9 10 9 6 0
10 -7 10 -16z m70 -5 c0 -5 -4 -9 -10 -9 -5 0 -10 7 -10 16 0 8 5 12 10 9 6
-3 10 -10 10 -16z m-976 -20 c-3 -5 -10 -7 -15 -3 -5 3 -7 10 -3 15 3 5 10 7
15 3 5 -3 7 -10 3 -15z m218 6 c0 -5 -5 -11 -11 -13 -6 -2 -11 4 -11 13 0 9 5
15 11 13 6 -2 11 -8 11 -13z m728 -105 c0 -5 -4 -10 -10 -10 -5 0 -10 5 -10
10 0 6 5 10 10 10 6 0 10 -4 10 -10z m-996 -21 c-3 -5 -10 -7 -15 -3 -5 3 -7
10 -3 15 3 5 10 7 15 3 5 -3 7 -10 3 -15z m166 13 c0 -13 -12 -22 -22 -16 -10
6 -1 24 13 24 5 0 9 -4 9 -8z m925 -12 c3 -5 -3 -10 -14 -10 -12 0 -21 5 -21
10 0 6 6 10 14 10 8 0 18 -4 21 -10z m-1092 -65 c1 -5 -6 -11 -15 -13 -11 -2
-18 3 -18 13 0 17 30 18 33 0z m1417 -10 c0 -8 -4 -15 -9 -15 -13 0 -22 16
-14 24 11 11 23 6 23 -9z m-1544 -22 c-10 -10 -19 5 -10 18 6 11 8 11 12 0 2
-7 1 -15 -2 -18z m1400 -94 c7 -12 -15 -31 -28 -23 -4 3 -8 12 -8 20 0 17 26
19 36 3z m214 -99 c0 -5 -4 -10 -10 -10 -5 0 -10 5 -10 10 0 6 5 10 10 10 6 0
10 -4 10 -10z m-176 -21 c-3 -5 -10 -7 -15 -3 -5 3 -7 10 -3 15 3 5 10 7 15 3
5 -3 7 -10 3 -15z"/>
<path d="M880 1349 c-104 -20 -210 -100 -263 -197 -104 -191 -20 -436 181
-530 50 -24 69 -27 162 -27 96 0 110 3 162 29 78 40 145 108 182 186 28 59 31
74 31 165 0 90 -3 106 -29 160 -54 109 -156 189 -274 214 -60 12 -88 13 -152
0z m225 -78 c119 -59 185 -166 185 -300 0 -192 -140 -331 -335 -333 -218 -3
-382 214 -321 424 59 206 279 303 471 209z"/>
<path d="M893 1280 c-93 -20 -183 -93 -225 -185 -31 -67 -31 -180 -1 -247 31
-69 94 -131 164 -163 53 -23 71 -27 138 -23 91 4 149 29 209 90 151 152 109
405 -80 497 -69 33 -141 44 -205 31z m157 -55 c178 -63 235 -293 107 -432 -52
-57 -105 -84 -177 -90 -156 -14 -290 106 -290 261 0 81 17 129 64 183 74 84
191 115 296 78z"/>
<path d="M890 1211 c-43 -14 -84 -38 -112 -68 -29 -31 -70 -112 -62 -125 3 -4
43 -8 90 -8 l84 0 0 70 c0 54 -3 70 -14 70 -18 0 -86 -63 -86 -79 0 -17 40
-13 46 4 9 24 24 17 24 -10 0 -24 -3 -25 -55 -25 -30 0 -55 4 -55 9 0 34 100
126 145 133 19 3 20 -3 20 -92 l0 -95 -102 -3 c-95 -2 -103 -4 -103 -22 0 -19
7 -20 105 -20 l105 0 0 -95 c0 -110 -5 -115 -81 -66 -39 24 -89 83 -89 105 0
3 25 6 55 6 52 0 55 -1 55 -25 0 -14 -4 -25 -10 -25 -5 0 -10 7 -10 15 0 9 -9
15 -25 15 -14 0 -25 -4 -25 -9 0 -11 77 -81 90 -81 6 0 10 30 10 70 l0 70 -91
0 c-89 0 -90 0 -84 -22 14 -45 56 -108 90 -134 39 -29 125 -58 137 -46 5 5 7
116 6 248 -3 259 -2 252 -58 235z"/>
<path d="M970 970 l0 -250 28 6 c83 20 148 70 181 138 12 23 21 48 21 54 0 8
-27 12 -90 12 l-90 0 0 -70 c0 -38 3 -70 6 -70 26 0 94 61 94 84 0 13 -41 5
-46 -9 -9 -24 -24 -17 -24 10 0 24 3 25 55 25 30 0 55 -2 55 -5 0 -14 -30 -62
-52 -81 -25 -24 -81 -54 -98 -54 -6 0 -10 35 -10 95 l0 95 98 0 c103 0 114 3
105 26 -4 11 -28 14 -104 14 l-99 0 0 100 0 100 38 -15 c39 -16 122 -98 122
-121 0 -10 -14 -14 -55 -14 -52 0 -55 1 -55 24 0 31 16 42 23 16 6 -23 47 -28
47 -6 0 18 -66 76 -86 76 -12 0 -14 -13 -12 -67 l3 -68 79 -3 c44 -2 83 1 88
6 17 17 -23 91 -72 135 -42 38 -103 67 -139 67 -8 0 -11 -70 -11 -250z"/>
<path d="M46 878 c46 -380 278 -670 629 -787 418 -138 876 43 1089 431 36 64
86 194 86 222 0 9 -19 18 -52 26 -78 16 -401 71 -403 68 -1 -2 -19 -36 -40
-76 -78 -150 -228 -241 -400 -242 -206 0 -389 145 -437 346 l-12 51 -90 7
c-49 3 -154 6 -233 6 l-144 0 7 -52z"/>
</g>
</svg>
